<svg class="c-icon-set" xmlns="http://www.w3.org/2000/svg">
<symbol id="back" viewBox="0 0 44 44"><title>back icon</title> <polygon points="38.5 20.167 12.522 20.167 19.094 13.594 16.5 11 5.5 22 16.5 33 19.094 30.406 12.522 23.833 38.5 23.833"/> </symbol>
<symbol id="bbc" viewBox="0 0 44 44"><title>bbc icon</title> <path d="M30.25,11 L30.25,32.0833333 C30.25,36.135 26.9683333,39.4166667 22.9166667,39.4166667 C18.865,39.4166667 15.5833333,36.135 15.5833333,32.0833333 L15.5833333,9.16666667 C15.5833333,6.63666667 17.6366667,4.58333333 20.1666667,4.58333333 C22.6966667,4.58333333 24.75,6.63666667 24.75,9.16666667 L24.75,28.4166667 C24.75,29.425 23.9341667,30.25 22.9166667,30.25 C21.8991667,30.25 21.0833333,29.425 21.0833333,28.4166667 L21.0833333,11 L18.3333333,11 L18.3333333,28.4166667 C18.3333333,30.9466667 20.3866667,33 22.9166667,33 C25.4466667,33 27.5,30.9466667 27.5,28.4166667 L27.5,9.16666667 C27.5,5.115 24.2183333,1.83333333 20.1666667,1.83333333 C16.115,1.83333333 12.8333333,5.115 12.8333333,9.16666667 L12.8333333,32.0833333 C12.8333333,37.6566667 17.3525,42.1666667 22.9166667,42.1666667 C28.4808333,42.1666667 33,37.6566667 33,32.0833333 L33,11 L30.25,11 Z"/> </symbol>
<symbol id="berichten" viewBox="0 0 44 44"><title>berichten icon</title> <path d="M36.6666667,3.66666667 L7.33333333,3.66666667 C5.3075,3.66666667 3.685,5.3075 3.685,7.33333333 L3.66666667,40.3333333 L11,33 L36.6666667,33 C38.6925,33 40.3333333,31.3591667 40.3333333,29.3333333 L40.3333333,7.33333333 C40.3333333,5.3075 38.6925,3.66666667 36.6666667,3.66666667 Z M33,25.6666667 L11,25.6666667 L11,22 L33,22 L33,25.6666667 Z M33,20.1666667 L11,20.1666667 L11,16.5 L33,16.5 L33,20.1666667 Z M33,14.6666667 L11,14.6666667 L11,11 L33,11 L33,14.6666667 Z"/> </symbol>
<symbol id="change" viewBox="0 0 44 44"><title>change icon</title> <g fill-rule="evenodd"> <polygon fill-rule="nonzero" points="31.737 26.75 15.714 26.75 15.714 31.25 31.737 31.25 31.737 38 40.857 29 31.737 20"/> <polygon fill-rule="nonzero" points="12.263 24 12.263 17.25 28.286 17.25 28.286 12.75 12.263 12.75 12.263 6 3.143 15"/> </g> </symbol>
<symbol id="leidinggevenden" viewBox="0 0 44 44"><title>leidinggevenden icon</title> <path d="M30.25,22 C32.78,22 34.815,19.9466667 34.815,17.4166667 C34.815,14.8866667 32.78,12.8333333 30.25,12.8333333 C27.72,12.8333333 25.6666667,14.8866667 25.6666667,17.4166667 C25.6666667,19.9466667 27.72,22 30.25,22 Z M16.5,20.1666667 C19.5341667,20.1666667 21.9816667,17.7008333 21.9816667,14.6666667 C21.9816667,11.6325 19.5341667,9.16666667 16.5,9.16666667 C13.4658333,9.16666667 11,11.6325 11,14.6666667 C11,17.7008333 13.4658333,20.1666667 16.5,20.1666667 Z M30.25,25.6666667 C26.8858333,25.6666667 20.1666667,27.3533333 20.1666667,30.7083333 L20.1666667,34.8333333 L40.3333333,34.8333333 L40.3333333,30.7083333 C40.3333333,27.3533333 33.6141667,25.6666667 30.25,25.6666667 Z M16.5,23.8333333 C12.2191667,23.8333333 3.66666667,25.9783333 3.66666667,30.25 L3.66666667,34.8333333 L16.5,34.8333333 L16.5,30.7083333 C16.5,29.15 17.1141667,26.4275 20.845,24.3466667 C19.25,24.0075 17.7008333,23.8333333 16.5,23.8333333 Z"/> </symbol>
<symbol id="logout" viewBox="0 0 44 44"><title>logout icon</title> <path d="M23.8333333,5.5 L20.1666667,5.5 L20.1666667,23.8333333 L23.8333333,23.8333333 L23.8333333,5.5 Z M32.6975,9.46916667 L30.1033333,12.0633333 C32.9816667,14.4191667 34.8333333,17.985 34.8333333,22 C34.8333333,29.0858333 29.0858333,34.8333333 22,34.8333333 C14.9141667,34.8333333 9.16666667,29.0858333 9.16666667,22 C9.16666667,17.985 11.0183333,14.4191667 13.8966667,12.0633333 L11.3025,9.46916667 C7.76416667,12.4941667 5.5,16.9766667 5.5,22 C5.5,31.1116667 12.8883333,38.5 22,38.5 C31.1116667,38.5 38.5,31.1116667 38.5,22 C38.5,16.9766667 36.2358333,12.4941667 32.6975,9.46916667 Z"/> </symbol>
<symbol id="mandaten" viewBox="0 0 44 44"><title>mandaten icon</title> <path d="M31.1666667,29.3333333 L23.8333333,22 L23.8333333,16.17 C25.96,15.4 27.5,13.3833333 27.5,11 C27.5,7.95666667 25.0433333,5.5 22,5.5 C18.9566667,5.5 16.5,7.95666667 16.5,11 C16.5,13.3833333 18.04,15.4 20.1666667,16.17 L20.1666667,22 L12.8333333,29.3333333 L5.5,29.3333333 L5.5,38.5 L14.6666667,38.5 L14.6666667,32.9083333 L22,25.2083333 L29.3333333,32.9083333 L29.3333333,38.5 L38.5,38.5 L38.5,29.3333333 L31.1666667,29.3333333 Z"/> </symbol>
<symbol id="personeelsbeheer" viewBox="0 0 44 44"><title>personeelsbeheer icon</title> <path d="M36.6666667,0 L7.33333333,0 L7.33333333,3.66666667 L36.6666667,3.66666667 L36.6666667,0 Z M7.33333333,44 L36.6666667,44 L36.6666667,40.3333333 L7.33333333,40.3333333 L7.33333333,44 Z M36.6666667,7.33333333 L7.33333333,7.33333333 C5.3075,7.33333333 3.66666667,8.97416667 3.66666667,11 L3.66666667,33 C3.66666667,35.0258333 5.3075,36.6666667 7.33333333,36.6666667 L36.6666667,36.6666667 C38.6925,36.6666667 40.3333333,35.0258333 40.3333333,33 L40.3333333,11 C40.3333333,8.97416667 38.6925,7.33333333 36.6666667,7.33333333 Z M22,12.375 C24.2733333,12.375 26.125,14.2266667 26.125,16.5 C26.125,18.7825 24.2733333,20.625 22,20.625 C19.7266667,20.625 17.875,18.7825 17.875,16.5 C17.875,14.2266667 19.7266667,12.375 22,12.375 Z M31.1666667,31.1666667 L12.8333333,31.1666667 L12.8333333,28.4166667 C12.8333333,25.3641667 18.9475,23.8333333 22,23.8333333 C25.0525,23.8333333 31.1666667,25.3641667 31.1666667,28.4166667 L31.1666667,31.1666667 Z"/> </symbol>
<symbol id="popover" viewBox="0 0 44 44"><title>popover icon</title> <g transform="translate(10 3)"> <polygon points="2.765 22.552 11.766 31.534 20.768 22.552 23.533 25.317 11.766 37.084 0 25.317"/> <polygon points="2.765 0 11.766 8.982 20.768 0 23.533 2.765 11.766 14.532 0 2.765" transform="matrix(1 0 0 -1 0 14.532)"/> </g> </symbol>
</svg>